<?xml version="1.0" encoding="UTF-8"?> <svg xmlns="http://www.w3.org/2000/svg" width="508" height="386" viewBox="0 0 508 386" fill="none"><g clip-path="url(#clip0)"><path d="M245.776 341.277C136.435 332.949 6.04149 248.156 12.68 160.847C19.3186 73.5384 145.606 -7.73874 254.947 0.58917C364.287 8.91708 427.227 172.082 420.589 259.391C413.95 346.7 355.116 349.605 245.776 341.277Z" fill="#F2F2F2"></path><path d="M254.946 355.301C381.002 355.301 483.191 349.035 483.191 341.305C483.191 333.576 381.002 327.31 254.946 327.31C128.89 327.31 26.7009 333.576 26.7009 341.305C26.7009 349.035 128.89 355.301 254.946 355.301Z" fill="#142237"></path><path opacity="0.1" d="M254.946 350.335C362.318 350.335 449.36 346.191 449.36 341.08C449.36 335.968 362.318 331.825 254.946 331.825C147.574 331.825 60.5316 335.968 60.5316 341.08C60.5316 346.191 147.574 350.335 254.946 350.335Z" fill="black"></path><path d="M95.7156 386C148.578 386 191.431 382.261 191.431 377.648C191.431 373.035 148.578 369.296 95.7156 369.296C42.8533 369.296 0 373.035 0 377.648C0 382.261 42.8533 386 95.7156 386Z" fill="#142237"></path><path opacity="0.1" d="M95.7155 383.036C140.742 383.036 177.244 380.564 177.244 377.513C177.244 374.463 140.742 371.99 95.7155 371.99C50.6886 371.99 14.187 374.463 14.187 377.513C14.187 380.564 50.6886 383.036 95.7155 383.036Z" fill="black"></path><path d="M427.708 73.1368H88.4984V339.499H427.708V73.1368Z" fill="#142237"></path><path d="M254.244 109.538H170.561C170.428 109.538 170.296 109.512 170.172 109.461C170.049 109.41 169.936 109.335 169.842 109.241C169.747 109.146 169.672 109.034 169.621 108.911C169.57 108.787 169.544 108.655 169.544 108.521C169.544 108.388 169.57 108.255 169.621 108.132C169.672 108.008 169.747 107.896 169.842 107.802C169.936 107.707 170.049 107.633 170.172 107.582C170.296 107.531 170.428 107.505 170.561 107.505H254.244C254.513 107.506 254.771 107.613 254.961 107.803C255.151 107.994 255.258 108.252 255.258 108.521C255.258 108.791 255.151 109.049 254.961 109.239C254.771 109.43 254.513 109.537 254.244 109.538V109.538Z" fill="#F2F2F2"></path><path d="M345.848 120.719H214.231C213.961 120.719 213.703 120.612 213.513 120.421C213.322 120.23 213.215 119.972 213.215 119.702C213.215 119.433 213.322 119.174 213.513 118.983C213.703 118.793 213.961 118.686 214.231 118.686H345.848C345.982 118.686 346.114 118.712 346.237 118.763C346.36 118.814 346.472 118.889 346.566 118.983C346.661 119.078 346.736 119.19 346.787 119.313C346.838 119.437 346.864 119.569 346.864 119.702C346.864 119.836 346.838 119.968 346.787 120.091C346.736 120.215 346.661 120.327 346.566 120.421C346.472 120.515 346.36 120.59 346.237 120.641C346.114 120.692 345.982 120.719 345.848 120.719V120.719Z" fill="#F2F2F2"></path><path d="M254.65 131.899H170.968C170.698 131.899 170.44 131.792 170.249 131.602C170.059 131.411 169.952 131.153 169.952 130.883C169.952 130.613 170.059 130.355 170.249 130.164C170.44 129.974 170.698 129.867 170.968 129.867H254.65C254.92 129.867 255.178 129.974 255.368 130.164C255.559 130.355 255.666 130.613 255.666 130.883C255.666 131.153 255.559 131.411 255.368 131.602C255.178 131.792 254.92 131.899 254.65 131.899V131.899Z" fill="#F2F2F2"></path><path d="M345.848 132.103H262.166C261.896 132.103 261.638 131.996 261.447 131.805C261.257 131.614 261.15 131.356 261.15 131.086C261.15 130.817 261.257 130.558 261.447 130.368C261.638 130.177 261.896 130.07 262.166 130.07H345.848C346.118 130.07 346.376 130.177 346.566 130.368C346.757 130.558 346.864 130.817 346.864 131.086C346.864 131.356 346.757 131.614 346.566 131.805C346.376 131.996 346.118 132.103 345.848 132.103V132.103Z" fill="#F2F2F2"></path><path d="M254.854 143.08H171.171C170.901 143.08 170.643 142.973 170.453 142.782C170.262 142.592 170.155 142.333 170.155 142.064C170.155 141.794 170.262 141.536 170.453 141.345C170.643 141.154 170.901 141.047 171.171 141.047H254.854C255.123 141.047 255.381 141.154 255.572 141.345C255.762 141.536 255.869 141.794 255.869 142.064C255.869 142.333 255.762 142.592 255.572 142.782C255.381 142.973 255.123 143.08 254.854 143.08V143.08Z" fill="#F2F2F2"></path><path d="M255.057 154.261H171.374C171.105 154.261 170.846 154.154 170.656 153.963C170.465 153.773 170.358 153.514 170.358 153.245C170.358 152.975 170.465 152.716 170.656 152.526C170.846 152.335 171.105 152.228 171.374 152.228H255.057C255.326 152.228 255.584 152.335 255.775 152.526C255.965 152.716 256.072 152.975 256.072 153.245C256.072 153.514 255.965 153.773 255.775 153.963C255.584 154.154 255.326 154.261 255.057 154.261V154.261Z" fill="#F2F2F2"></path><path d="M293.039 109.741H269.071C268.802 109.741 268.544 109.634 268.353 109.443C268.163 109.253 268.056 108.994 268.056 108.725C268.056 108.455 268.163 108.197 268.353 108.006C268.544 107.815 268.802 107.708 269.071 107.708H293.039C293.308 107.708 293.567 107.815 293.757 108.006C293.947 108.197 294.054 108.455 294.054 108.725C294.054 108.994 293.947 109.253 293.757 109.443C293.567 109.634 293.308 109.741 293.039 109.741V109.741Z" fill="#F2F2F2"></path><path d="M293.039 143.08H269.071C268.802 143.08 268.544 142.973 268.353 142.782C268.163 142.592 268.056 142.333 268.056 142.064C268.056 141.794 268.163 141.536 268.353 141.345C268.544 141.154 268.802 141.047 269.071 141.047H293.039C293.308 141.047 293.567 141.154 293.757 141.345C293.947 141.536 294.054 141.794 294.054 142.064C294.054 142.333 293.947 142.592 293.757 142.782C293.567 142.973 293.308 143.08 293.039 143.08V143.08Z" fill="#F2F2F2"></path><path d="M293.039 154.058H269.071C268.938 154.058 268.806 154.032 268.682 153.981C268.559 153.93 268.446 153.855 268.352 153.761C268.257 153.666 268.182 153.554 268.131 153.431C268.08 153.307 268.054 153.175 268.054 153.041C268.054 152.908 268.08 152.775 268.131 152.652C268.182 152.528 268.257 152.416 268.352 152.322C268.446 152.227 268.559 152.152 268.682 152.102C268.806 152.051 268.938 152.025 269.071 152.025H293.039C293.172 152.025 293.305 152.051 293.428 152.102C293.552 152.152 293.664 152.227 293.758 152.322C293.853 152.416 293.928 152.528 293.979 152.652C294.03 152.775 294.057 152.908 294.057 153.041C294.057 153.175 294.03 153.307 293.979 153.431C293.928 153.554 293.853 153.666 293.758 153.761C293.664 153.855 293.552 153.93 293.428 153.981C293.305 154.032 293.172 154.058 293.039 154.058V154.058Z" fill="#F2F2F2"></path><path d="M333.255 154.058H309.288C309.019 154.057 308.761 153.95 308.571 153.759C308.381 153.569 308.274 153.31 308.274 153.041C308.274 152.772 308.381 152.514 308.571 152.323C308.761 152.133 309.019 152.025 309.288 152.025H333.255C333.389 152.025 333.521 152.051 333.645 152.102C333.768 152.152 333.88 152.227 333.975 152.322C334.069 152.416 334.144 152.528 334.195 152.652C334.247 152.775 334.273 152.908 334.273 153.041C334.273 153.175 334.247 153.307 334.195 153.431C334.144 153.554 334.069 153.666 333.975 153.761C333.88 153.855 333.768 153.93 333.645 153.981C333.521 154.032 333.389 154.058 333.255 154.058V154.058Z" fill="#F2F2F2"></path><path d="M194.326 120.719H170.358C170.089 120.719 169.831 120.612 169.64 120.421C169.45 120.23 169.343 119.972 169.343 119.702C169.343 119.433 169.45 119.174 169.64 118.983C169.831 118.793 170.089 118.686 170.358 118.686H194.326C194.595 118.686 194.853 118.793 195.044 118.983C195.234 119.174 195.341 119.433 195.341 119.702C195.341 119.972 195.234 120.23 195.044 120.421C194.853 120.612 194.595 120.719 194.326 120.719V120.719Z" fill="#F2F2F2"></path><path d="M254.346 274.2H170.663C170.394 274.2 170.135 274.093 169.945 273.903C169.754 273.712 169.647 273.453 169.647 273.184C169.647 272.914 169.754 272.656 169.945 272.465C170.135 272.274 170.394 272.167 170.663 272.167H254.346C254.615 272.167 254.873 272.274 255.064 272.465C255.254 272.656 255.361 272.914 255.361 273.184C255.361 273.453 255.254 273.712 255.064 273.903C254.873 274.093 254.615 274.2 254.346 274.2Z" fill="#F2F2F2"></path><path d="M253.94 296.562H170.257C169.987 296.562 169.729 296.455 169.539 296.264C169.348 296.073 169.241 295.815 169.241 295.545C169.241 295.276 169.348 295.017 169.539 294.827C169.729 294.636 169.987 294.529 170.257 294.529H253.94C254.209 294.529 254.467 294.636 254.658 294.827C254.848 295.017 254.955 295.276 254.955 295.545C254.955 295.815 254.848 296.073 254.658 296.264C254.467 296.455 254.209 296.562 253.94 296.562Z" fill="#F2F2F2"></path><path d="M254.143 307.743H170.46C170.326 307.743 170.194 307.717 170.071 307.666C169.947 307.615 169.835 307.54 169.74 307.446C169.646 307.351 169.571 307.239 169.52 307.116C169.468 306.992 169.442 306.86 169.442 306.726C169.442 306.592 169.468 306.46 169.52 306.337C169.571 306.213 169.646 306.101 169.74 306.007C169.835 305.912 169.947 305.837 170.071 305.786C170.194 305.736 170.326 305.709 170.46 305.71H254.143C254.276 305.709 254.408 305.736 254.532 305.786C254.655 305.837 254.768 305.912 254.862 306.007C254.957 306.101 255.032 306.213 255.083 306.337C255.134 306.46 255.16 306.592 255.16 306.726C255.16 306.86 255.134 306.992 255.083 307.116C255.032 307.239 254.957 307.351 254.862 307.446C254.768 307.54 254.655 307.615 254.532 307.666C254.408 307.717 254.276 307.743 254.143 307.743V307.743Z" fill="#F2F2F2"></path><path d="M289.891 296.765H265.923C265.654 296.765 265.396 296.658 265.205 296.467C265.015 296.277 264.908 296.018 264.908 295.749C264.908 295.479 265.015 295.22 265.205 295.03C265.396 294.839 265.654 294.732 265.923 294.732H289.891C290.16 294.732 290.418 294.839 290.609 295.03C290.799 295.22 290.906 295.479 290.906 295.749C290.906 296.018 290.799 296.277 290.609 296.467C290.418 296.658 290.16 296.765 289.891 296.765Z" fill="#F2F2F2"></path><path d="M289.891 307.743H265.923C265.654 307.743 265.396 307.635 265.205 307.445C265.015 307.254 264.908 306.996 264.908 306.726C264.908 306.457 265.015 306.198 265.205 306.007C265.396 305.817 265.654 305.71 265.923 305.71H289.891C290.16 305.71 290.418 305.817 290.609 306.007C290.799 306.198 290.906 306.457 290.906 306.726C290.906 306.996 290.799 307.254 290.609 307.445C290.418 307.635 290.16 307.743 289.891 307.743V307.743Z" fill="#F2F2F2"></path><path d="M330.107 296.765H306.14C305.87 296.765 305.612 296.658 305.422 296.467C305.231 296.277 305.124 296.018 305.124 295.749C305.124 295.479 305.231 295.22 305.422 295.03C305.612 294.839 305.87 294.732 306.14 294.732H330.107C330.376 294.732 330.635 294.839 330.825 295.03C331.016 295.22 331.123 295.479 331.123 295.749C331.123 296.018 331.016 296.277 330.825 296.467C330.635 296.658 330.376 296.765 330.107 296.765V296.765Z" fill="#F2F2F2"></path><path d="M345.95 285.381H214.332C214.063 285.381 213.805 285.274 213.614 285.083C213.424 284.893 213.317 284.634 213.317 284.365C213.317 284.095 213.424 283.836 213.614 283.646C213.805 283.455 214.063 283.348 214.332 283.348H345.95C346.219 283.348 346.478 283.455 346.668 283.646C346.859 283.836 346.966 284.095 346.966 284.365C346.966 284.634 346.859 284.893 346.668 285.083C346.478 285.274 346.219 285.381 345.95 285.381V285.381Z" fill="#F2F2F2"></path><path d="M194.427 285.381H170.46C170.191 285.381 169.932 285.274 169.742 285.083C169.551 284.893 169.444 284.634 169.444 284.365C169.444 284.095 169.551 283.836 169.742 283.646C169.932 283.455 170.191 283.348 170.46 283.348H194.427C194.697 283.348 194.955 283.455 195.145 283.646C195.336 283.836 195.443 284.095 195.443 284.365C195.443 284.634 195.336 284.893 195.145 285.083C194.955 285.274 194.697 285.381 194.427 285.381V285.381Z" fill="#F2F2F2"></path><path d="M345.95 319.127H214.332C214.199 319.127 214.067 319.101 213.943 319.05C213.82 318.999 213.707 318.924 213.613 318.83C213.518 318.735 213.443 318.623 213.392 318.5C213.341 318.376 213.315 318.244 213.315 318.11C213.315 317.977 213.341 317.844 213.392 317.721C213.443 317.597 213.518 317.485 213.613 317.391C213.707 317.296 213.82 317.221 213.943 317.17C214.067 317.12 214.199 317.093 214.332 317.094H345.95C346.219 317.094 346.478 317.201 346.668 317.391C346.859 317.582 346.966 317.841 346.966 318.11C346.966 318.38 346.859 318.638 346.668 318.829C346.478 319.02 346.219 319.127 345.95 319.127V319.127Z" fill="#F2F2F2"></path><path d="M194.427 319.127H170.46C170.326 319.127 170.194 319.101 170.071 319.05C169.947 318.999 169.835 318.924 169.74 318.83C169.646 318.735 169.571 318.623 169.52 318.5C169.468 318.376 169.442 318.244 169.442 318.11C169.442 317.977 169.468 317.844 169.52 317.721C169.571 317.597 169.646 317.485 169.74 317.391C169.835 317.296 169.947 317.221 170.071 317.17C170.194 317.12 170.326 317.093 170.46 317.094H194.427C194.561 317.093 194.693 317.12 194.817 317.17C194.94 317.221 195.052 317.296 195.147 317.391C195.241 317.485 195.316 317.597 195.367 317.721C195.419 317.844 195.445 317.977 195.445 318.11C195.445 318.244 195.419 318.376 195.367 318.5C195.316 318.623 195.241 318.735 195.147 318.83C195.052 318.924 194.94 318.999 194.817 319.05C194.693 319.101 194.561 319.127 194.427 319.127Z" fill="#F2F2F2"></path><path d="M234.136 181.095L201.638 213.214L234.136 245.333L241.448 238.015L216.871 213.417L241.651 188.616L234.136 181.095Z" fill="#536DFE"></path><path d="M282.071 181.095L314.569 213.214L282.071 245.333L274.759 238.015L299.336 213.417L274.556 188.616L282.071 181.095Z" fill="#536DFE"></path><path d="M97.5199 83.9719C99.762 83.9719 101.58 82.1528 101.58 79.9087C101.58 77.6647 99.762 75.8456 97.5199 75.8456C95.2778 75.8456 93.4602 77.6647 93.4602 79.9087C93.4602 82.1528 95.2778 83.9719 97.5199 83.9719Z" fill="#536DFE"></path><path d="M108.346 83.9719C110.588 83.9719 112.406 82.1528 112.406 79.9087C112.406 77.6647 110.588 75.8456 108.346 75.8456C106.104 75.8456 104.286 77.6647 104.286 79.9087C104.286 82.1528 106.104 83.9719 108.346 83.9719Z" fill="#536DFE"></path><path d="M119.172 83.9719C121.414 83.9719 123.231 82.1528 123.231 79.9087C123.231 77.6647 121.414 75.8456 119.172 75.8456C116.93 75.8456 115.112 77.6647 115.112 79.9087C115.112 82.1528 116.93 83.9719 119.172 83.9719Z" fill="#536DFE"></path><path opacity="0.1" d="M427.708 86.6807H88.4984V88.0351H427.708V86.6807Z" fill="black"></path><path d="M508 274.242C508 303.032 490.899 313.085 469.804 313.085C448.71 313.085 431.609 303.032 431.609 274.242C431.609 245.452 469.804 208.826 469.804 208.826C469.804 208.826 508 245.452 508 274.242Z" fill="#F2F2F2"></path><path d="M468.413 308.681L468.804 284.586L485.084 254.777L468.866 280.806L469.042 269.972L480.261 248.406L469.088 267.105L469.404 247.62L481.419 230.45L469.454 244.556L469.651 208.826L468.41 256.126L468.512 254.174L456.296 235.461L468.316 257.92L467.178 279.682L467.144 279.104L453.062 259.411L467.101 281.145L466.959 283.866L466.933 283.907L466.945 284.131L464.057 339.343H467.915L468.378 310.825L482.384 289.144L468.413 308.681Z" fill="#3F3D56"></path><path d="M55.3117 339.089C54.1398 339.742 52.9036 340.272 51.6228 340.671C49.3318 341.297 46.8832 341.067 44.5692 341.602C43.6218 341.821 42.5907 342.279 42.2894 343.204C42.0684 343.883 42.3088 344.615 42.539 345.291C45.096 352.794 46.6371 360.761 50.7149 367.557C52.4286 370.412 54.5557 372.996 57.0267 375.227C57.9537 376.063 59.0042 376.881 60.2453 377.012C60.8172 377.073 61.395 376.981 61.9203 376.747C62.4455 376.512 62.8997 376.143 63.2369 375.677C63.5742 375.211 63.7825 374.663 63.841 374.091C63.8995 373.518 63.806 372.94 63.57 372.415C63.2043 371.602 62.5247 370.972 62.0864 370.196C61.6111 369.207 61.3323 368.135 61.2656 367.04C60.8628 363.831 60.4747 360.477 61.5856 357.44C62.3308 355.403 63.6976 353.666 64.8363 351.82C65.975 349.974 66.921 347.86 66.6677 345.705C66.4948 344.235 65.7782 342.89 65.0212 341.618C64.2628 340.344 62.7637 336.919 61.2399 336.494C59.6581 336.052 56.6912 338.382 55.3117 339.089Z" fill="#0E0D0D"></path><path d="M97.007 365.007C97.0309 365.733 96.9297 366.458 96.7079 367.149C96.2308 368.41 95.0475 369.274 94.4361 370.475C93.5858 372.146 93.9712 374.165 94.5346 375.954C94.8877 377.075 95.351 378.241 96.2994 378.934C97.1104 379.438 98.0328 379.733 98.985 379.795C107.121 380.922 115.385 380.276 123.595 380.512C125.092 380.555 126.676 380.607 127.982 379.875C129.288 379.144 130.096 377.304 129.207 376.098C128.41 375.015 126.832 375.025 125.49 374.961C121.993 374.783 118.663 373.41 116.056 371.072C115.542 370.632 115.096 370.118 114.733 369.547C114.454 369.041 114.222 368.509 114.041 367.959C112.89 364.839 111.521 361.804 109.943 358.877C109.502 358.057 109.002 357.204 108.182 356.765C107.581 356.492 106.929 356.35 106.269 356.348C104.223 356.215 98.9243 355.518 97.342 357.11C95.88 358.582 97.0394 363.138 97.007 365.007Z" fill="#0F0F0F"></path><path d="M109.598 183.156C116.817 183.156 122.668 177.299 122.668 170.075C122.668 162.85 116.817 156.994 109.598 156.994C102.38 156.994 96.5286 162.85 96.5286 170.075C96.5286 177.299 102.38 183.156 109.598 183.156Z" fill="#FBBEBE"></path><path d="M97.7961 180.876C97.0187 182.959 95.7001 184.916 93.7814 186.037L111.858 189.727C111.202 187.087 111.116 184.337 111.605 181.66C111.784 181.012 111.821 180.333 111.713 179.669C111.373 178.357 109.897 177.725 108.576 177.424C105.276 176.671 102.359 176.267 99.293 174.809C98.3558 176.415 98.487 179.025 97.7961 180.876Z" fill="#FBBEBE"></path><path d="M93.6303 181.139C95.5749 180.258 97.6936 179.829 99.8274 179.885C101.961 179.941 104.055 180.48 105.951 181.461C108.268 182.683 110.187 184.528 112.072 186.349C113.81 188.027 115.664 189.948 115.787 192.361C115.847 193.531 115.483 194.674 115.298 195.83C114.968 198.222 115.388 200.657 116.502 202.798C117.616 204.939 119.367 206.68 121.514 207.78C122.95 210.175 123.247 213.075 123.269 215.868C123.352 226.448 120.017 237.159 122.398 247.468C122.957 249.889 123.824 252.233 124.307 254.67C124.933 257.826 124.902 261.071 125.229 264.272C125.584 267.738 126.358 271.149 127.535 274.428C126.749 275.68 125.112 276.16 123.637 276.059C122.163 275.957 120.784 275.317 119.468 274.643C113.098 271.38 107.263 267.078 100.664 264.305C96.2989 262.47 91.6484 261.328 87.4135 259.209C83.1786 257.09 79.24 253.727 77.9452 249.169C77.3853 247.198 77.3508 245.122 77.3202 243.073C77.1915 234.444 77.0719 225.721 78.9486 217.297C80.6036 209.869 83.7939 202.763 84.4898 195.184C84.7164 192.717 84.7212 190.077 86.0983 188.018C88.0448 185.109 92.2476 184.355 93.6303 181.139Z" fill="#040404"></path><path d="M102.165 170.26C102.935 169.254 104.421 169.117 105.651 169.415C106.881 169.712 108.016 170.347 109.258 170.588C109.541 170.668 109.837 170.688 110.128 170.647C110.418 170.607 110.698 170.505 110.947 170.35C111.381 169.922 111.641 169.348 111.676 168.738C112.111 166.147 112.213 163.51 111.978 160.892C111.914 160.525 111.938 160.147 112.05 159.791C112.358 159.05 113.296 158.873 114.063 158.635C115.327 158.207 116.414 157.37 117.15 156.255C117.886 155.141 118.23 153.812 118.128 152.48C118.109 151.841 117.841 151.235 117.381 150.791C116.851 150.359 116.109 150.332 115.425 150.327C111.912 150.299 108.398 150.3 104.885 150.33C103.584 150.341 102.219 150.373 101.092 151.021C100.258 151.501 99.6383 152.273 98.89 152.878C96.9386 154.454 94.2991 154.774 91.9249 155.582C90.7659 155.913 89.7135 156.541 88.8722 157.404C88.0827 158.307 87.7031 159.649 88.1989 160.742C88.4535 161.197 88.7378 161.635 89.0501 162.053C90.4505 164.294 89.5182 167.201 89.7273 169.836C89.9884 173.126 94.8538 178.464 98.1529 179.243C103.479 180.5 100.402 172.419 102.165 170.26Z" fill="#030303"></path><path d="M94.7867 314.526C95.1228 316.928 95.5538 319.339 95.4386 321.762C95.2777 325.145 94.0587 328.405 93.8334 331.784C93.665 334.308 94.0543 336.86 93.7041 339.365C93.4799 340.969 92.9572 342.516 92.6336 344.103C92.1212 346.689 92.1357 349.352 92.6761 351.933C93.2166 354.513 94.272 356.958 95.779 359.121C96.0004 359.491 96.3152 359.796 96.6917 360.006C97.0529 360.14 97.4395 360.191 97.823 360.156C101.627 360.078 105.421 359.733 109.177 359.123C109.452 359.112 109.712 358.997 109.906 358.801C109.99 358.672 110.045 358.524 110.064 358.371C110.76 354.788 109.172 351.195 108.769 347.568C108.337 343.694 109.266 339.813 110.188 336.026C110.606 334.158 111.128 332.315 111.752 330.506C112.197 329.288 112.735 328.104 113.122 326.866C113.668 324.921 114.002 322.922 114.115 320.905C114.383 317.722 114.525 314.532 114.541 311.335C114.632 308.305 114.38 305.274 113.79 302.301C112.943 298.537 111.208 295.041 109.488 291.588C108.569 291.808 107.706 292.219 106.954 292.793C104.738 294.23 102.425 295.509 100.03 296.622C98.4215 297.37 95.2841 297.901 94.2631 299.46C93.2561 300.997 93.9058 304.133 93.9827 305.828C94.1147 308.738 94.3827 311.637 94.7867 314.526Z" fill="#142237"></path><path opacity="0.6" d="M94.7867 314.526C95.1228 316.928 95.5538 319.339 95.4386 321.762C95.2777 325.145 94.0587 328.405 93.8334 331.784C93.665 334.308 94.0543 336.86 93.7041 339.365C93.4799 340.969 92.9572 342.516 92.6336 344.103C92.1212 346.689 92.1357 349.352 92.6761 351.933C93.2166 354.513 94.272 356.958 95.779 359.121C96.0004 359.491 96.3152 359.796 96.6917 360.006C97.0529 360.14 97.4395 360.191 97.823 360.156C101.627 360.078 105.421 359.733 109.177 359.123C109.452 359.112 109.712 358.997 109.906 358.801C109.99 358.672 110.045 358.524 110.064 358.371C110.76 354.788 109.172 351.195 108.769 347.568C108.337 343.694 109.266 339.813 110.188 336.026C110.606 334.158 111.128 332.315 111.752 330.506C112.197 329.288 112.735 328.104 113.122 326.866C113.668 324.921 114.002 322.922 114.115 320.905C114.383 317.722 114.525 314.532 114.541 311.335C114.632 308.305 114.38 305.274 113.79 302.301C112.943 298.537 111.208 295.041 109.488 291.588C108.569 291.808 107.706 292.219 106.954 292.793C104.738 294.23 102.425 295.509 100.03 296.622C98.4215 297.37 95.2841 297.901 94.2631 299.46C93.2561 300.997 93.9058 304.133 93.9827 305.828C94.1147 308.738 94.3827 311.637 94.7867 314.526Z" fill="#2F2E41"></path><path d="M77.1166 263.21C75.381 267.887 77.9322 272.941 80.1487 277.41C85.6095 288.419 89.4015 300.167 93.1734 311.864C93.4559 312.74 93.7382 313.696 93.4232 314.561C93.1512 315.176 92.7097 315.7 92.1504 316.072C89.5497 318.049 86.2382 318.754 83.1402 319.788C80.1463 320.788 77.2788 322.133 74.5957 323.797C72.3507 325.189 70.2478 326.796 68.1489 328.401L61.4676 333.508C61.035 333.8 60.657 334.167 60.3508 334.59C59.7064 335.602 59.9703 336.923 60.2912 338.079C61.1408 341.14 62.2348 344.128 63.5624 347.014C63.7809 347.647 64.1968 348.192 64.7488 348.57C65.7916 349.131 67.0672 348.387 67.8635 347.51C68.6599 346.634 69.3487 345.543 70.4712 345.166C71.5925 344.79 72.8266 345.246 73.9976 345.081C75.8915 344.815 77.1489 343.069 78.5141 341.728C84.0918 336.251 93.4042 336.649 99.5399 331.806C100.427 331.012 101.366 330.278 102.351 329.609C103.388 328.995 104.564 328.658 105.64 328.116C108.914 326.466 110.971 323.056 112.074 319.558C113.176 316.059 113.491 312.367 114.283 308.785C114.692 306.934 115.231 305.103 115.413 303.215C115.531 301.46 115.492 299.697 115.299 297.948L113.085 270.538C112.905 268.306 112.725 266.072 112.375 263.86C105.799 264.095 99.2289 264.36 92.6499 264.438C87.4149 264.5 82.0837 264.866 77.1166 263.21Z" fill="#2F2E41"></path><path d="M74.6994 269.623C75.5913 271.058 77.7623 271.029 79.2572 270.241C80.7521 269.454 81.9135 268.132 83.4119 267.352C85.4255 266.303 87.8082 266.342 90.0771 266.407C93.6693 266.508 97.3056 266.616 100.762 267.601C104.336 268.62 107.816 270.583 111.513 270.191C112.156 270.123 112.859 269.938 113.209 269.394C113.414 269 113.511 268.558 113.489 268.114L113.61 264.882C113.684 264.323 113.594 263.754 113.352 263.245C113.042 262.821 112.617 262.495 112.127 262.306C106.866 259.757 100.866 259.283 95.0248 259.082C92.0553 258.981 89.0846 258.939 86.1126 258.957C83.5907 258.972 80.5631 258.607 78.1111 259.281C74.8205 260.187 73.0299 266.935 74.6994 269.623Z" fill="#0E0E0E"></path><path d="M107.735 184.976C100.842 184.914 94.5946 180.36 87.7018 180.25C86.869 180.192 86.0346 180.336 85.2693 180.67C84.3088 181.154 83.6773 182.09 82.9477 182.881C80.9096 185.09 77.9583 186.269 75.8645 188.425C73.9012 190.447 72.8094 193.459 73.5845 196.169C74.3595 198.88 77.2849 200.959 80.0254 200.307C81.1295 196.73 83.4083 193.631 86.4924 191.513C88.0971 190.483 89.7883 189.594 91.5469 188.857C94.6448 187.453 98.109 186.021 101.343 187.074C102.536 187.525 103.661 188.139 104.685 188.898L110.078 192.523C109.449 190.043 108.884 187.261 107.735 184.976Z" fill="#536DFE"></path><path d="M79.2313 197.909C78.3159 199.052 79.6345 200.708 79.4327 202.159C79.2986 203.123 78.5061 203.859 78.176 204.774C77.8341 205.723 78.0154 206.773 77.8858 207.773C77.7557 208.5 77.5632 209.214 77.3106 209.908C76.7299 211.981 76.3245 214.099 76.0988 216.24L74.8923 225.258C74.6829 226.615 74.5554 227.984 74.5106 229.356C74.5715 230.382 74.503 231.412 74.3067 232.42C74.0395 233.406 73.4479 234.268 73.0499 235.208C72.652 236.149 72.4675 237.286 73.0051 238.154C71.2047 239.655 70.6693 242.602 71.9283 244.58C72.1679 244.889 72.3554 245.234 72.4831 245.603C72.5527 246.119 72.4677 246.644 72.2388 247.111L71.0187 250.365C70.7064 251.197 70.6077 252.465 71.4759 252.655C70.7567 253.403 70.1964 254.289 69.8289 255.259C69.6506 255.746 69.5973 256.27 69.6739 256.783C69.7506 257.297 69.9547 257.782 70.2675 258.196C70.5707 258.462 70.8288 258.776 71.0318 259.124C71.1512 259.61 71.1204 260.121 70.9435 260.589C70.7611 261.299 70.7259 262.039 70.8402 262.764C70.9544 263.489 71.2157 264.182 71.6079 264.802C72.0143 265.414 72.5899 265.893 73.2643 266.183C73.9387 266.472 74.6826 266.558 75.4053 266.431C77.8458 265.88 80.0389 265.011 82.4996 265.463C87.798 266.436 93.1134 267.413 98.245 269.053C104.102 270.924 109.773 273.669 115.894 274.245C116.296 274.327 116.715 274.262 117.074 274.061C117.386 273.765 117.58 273.366 117.62 272.938C118.25 269.979 118.881 267.019 119.512 264.06C120.274 260.78 120.855 257.46 121.251 254.115C121.466 251.957 121.527 249.786 121.589 247.618L122.076 230.358C122.305 227.814 121.966 225.251 121.084 222.855L118.279 213.894C116.679 208.78 113.007 204.246 111.7 199.049C110.873 195.76 110.262 192.231 108.043 189.667C104.88 186.013 99.407 185.444 94.617 186.073C92.4531 186.357 90.2706 186.846 88.3988 187.97C86.2344 189.268 84.64 191.314 83.0974 193.313C81.8261 194.961 80.5321 196.285 79.2313 197.909Z" fill="#536DFE"></path><path d="M90.4158 248.676C90.8104 250.379 91.6393 251.949 92.1466 253.622C92.9966 256.425 92.9244 259.444 93.7727 262.248C94.1288 263.425 94.6447 264.554 94.9003 265.757C95.4961 268.561 94.6261 271.461 93.5455 274.116C92.4648 276.771 91.1487 279.388 90.7978 282.233C90.5508 284.237 90.9057 286.5 92.4489 287.8C94.051 289.15 96.3791 289.059 98.4658 288.879C99.2149 288.858 99.9543 288.704 100.65 288.424C102.245 287.668 102.917 285.778 103.29 284.051C104.54 278.264 104.183 272.266 103.82 266.356L102.87 250.9C102.687 247.925 102.491 244.888 101.575 242.031C101.242 240.991 100.661 238.891 99.7125 238.228C98.7731 237.57 96.0904 237.541 94.9272 237.486C89.4702 237.23 89.5314 244.853 90.4158 248.676Z" fill="#FBBEBE"></path><path d="M96.462 191.611C95.3475 191.027 93.9434 191.279 92.8661 191.929C91.826 192.642 90.915 193.527 90.1724 194.547C87.7641 197.489 85.2147 200.865 85.5719 204.651C85.7058 206.071 86.2489 207.415 86.6172 208.792C88.2318 214.833 86.4463 221.221 86.6512 227.471C86.7696 231.082 87.5547 234.634 88.3366 238.161C88.4961 238.881 88.7517 239.714 89.4475 239.957C89.9702 240.139 90.5347 239.905 91.052 239.708C92.9793 238.995 95.0496 238.757 97.0881 239.014C99.1265 239.271 101.073 240.016 102.763 241.185C104.056 240.495 103.571 238.312 103.282 236.875C102.421 232.606 103.589 228.201 105.009 224.083C106.428 219.965 108.126 215.853 108.361 211.503C108.627 206.575 106.995 201.765 105.384 197.1C105.032 196.082 104.648 195.014 103.833 194.311C103.135 193.792 102.335 193.426 101.486 193.238C99.7749 192.732 98.0426 192.439 96.462 191.611Z" fill="#142237"></path></g><defs><clipPath id="clip0"><rect width="508" height="386" fill="white"></rect></clipPath></defs></svg> 